<?xml version="1.0" encoding="UTF-8"?>
<svg width="38px" height="32px" viewBox="0 0 38 32" xmlns="http://www.w3.org/2000/svg" xmlns:xlink="http://www.w3.org/1999/xlink" version="1.1">
  <p>All icons are modified versions of <a href="https://www.iconfinder.com/firststyles">First Styles</a> icons and and have color and minor shape modifications.</p>

  <defs>
    <path id="star" d="m20.70154,21.7841c0,-5.34708 4.34792,-9.695 9.695,-9.695c0.64788,0 1.28017,0.06245 1.89684,0.18734c-0.03902,-0.64008 -0.49958,-1.23333 -1.22553,-1.35043l-8.58655,-1.35043c-0.47617,-0.07806 -0.88207,-0.37468 -1.08503,-0.81182l-3.75467,-7.83717c-0.523,-1.08503 -2.06857,-1.10845 -2.61499,-0.03122l-3.9342,7.75131c-0.21857,0.42933 -0.63228,0.71814 -1.10844,0.78059l-8.61777,1.14747c-1.19431,0.15612 -1.6939,1.62364 -0.83524,2.47449l6.15109,6.14329c0.33566,0.33566 0.49178,0.81963 0.40591,1.29579l-1.56899,8.54752c-0.21857,1.18651 1.02258,2.10761 2.09199,1.56119l7.74351,-3.95762c0.42932,-0.21857 0.93671,-0.21075 1.35823,0.01561l7.64203,4.13716c0.64008,0.34346 1.46098,0.10085 1.8825,-0.35971c-3.20824,-1.58461 -5.53569,-4.83906 -5.53569,-8.64836z" fill="#ffd400"/>

    <path id="review" d="M36.566 14.807 C36.566 22.764 28.48 29.215 18.5 29.215 16.281 29.215 14.15 28.895 12.184 28.313 8.412 32.655 3.975 31.447 3.975 31.447 6.33 30.036 7.342 28.022 7.776 26.407 3.324 23.782 0.434 19.564 0.434 14.807 0.434 6.851 8.52 0.4 18.5 0.4 28.48 0.4 36.566 6.851 36.566 14.807 Z M8.636 9.258 L28.364 9.258 28.364 7.826 8.628 7.826 8.628 9.258 Z M12.473 11.826 L8.628 11.826 8.628 13.258 12.473 13.258 12.473 11.826 Z M8.636 15.818 L8.636 17.251 21.304 17.251 21.304 15.818 8.636 15.818 Z M28.364 19.818 L8.628 19.818 8.628 21.251 28.364 21.251 28.364 19.818 Z M28.364 15.818 L23.378 15.818 23.378 17.251 28.364 17.251 28.364 15.818 Z M28.364 11.826 L14.547 11.826 14.547 13.258 28.364 13.258 28.364 11.826 Z" fill="#000" fill-opacity="1" stroke="none"/>

    <ellipse id="circle" cx="9.833333" cy="9.750002" fill="#33c" rx="9.61791" ry="9.61791" stroke="none"/>

    <path id="plus" d="m28.79578,14.19387l3.01778,0.04079l0,5.95659l5.98556,0.01842l0.01842,3.00857l-6.03556,-0.01842l0.01315,5.99084l-2.99014,0.03158l-0.03158,-6.01186l-5.99344,-0.01056l0,-2.99014l6.02501,0.01842l-0.00921,-6.03423l0.00001,0z" stroke="none"/>

    <path id="plus-hover" d="m28.79578,14.19387l3.01778,0.04079l0,5.95659l5.98556,0.01842l0.01842,3.00857l-6.03556,-0.01842l0.01315,5.99084l-2.99014,0.03158l-0.03158,-6.01186l-5.99344,-0.01056l0,-2.99014l6.02501,0.01842l-0.00921,-6.03423l0.00001,0z" stroke="none"/>

    <rect id="minus" height="3" width="15" x="22.79876" y="20.21266" stroke="none"/>

    <rect id="minus-hover" height="3" width="15" x="22.79876" y="20.21266" stroke="none"/>

    <path id="x" d="M11.549 1.102 L13.654 3.264 9.442 7.476 13.662 11.722 11.547 13.862 7.292 9.581 3.066 13.827 0.929 11.735 5.158 7.461 0.927 3.216 3.042 1.102 7.289 5.375 11.549 1.102 11.549 1.102 Z" fill-opacity="1" stroke="none"/>

    <symbol id="fave-add">
      <use href="#star" x="0" y="0"/>
      <use href="#circle" x="20.75" y="12"/>
      <use href="#plus" x="0" y="0" fill="#fff"/>
    </symbol>

    <symbol id="fave-add-hover" >
      <use href="#star" x="0" y="0"/>
      <use href="#circle" x="20.75" y="12"/>
      <use href="#plus" x="0" y="0" fill="#f04"/>
    </symbol>

    <symbol id="fave-remove">
      <use href="#star" x="0" y="0"/>
      <use href="#circle" x="20.75" y="12"/>
      <use href="#minus" x="0" y="0" fill="#fff"/>
    </symbol>

    <symbol id="fave-remove-hover">
      <use href="#star" x="0" y="0"/>
      <use href="#circle" x="20.75" y="12"/>
      <use href="#minus" x="0" y="0" fill="#f04"/>
    </symbol>

    <symbol id ="review-add">
      <use href="#review" x="0" y="0"/>
      <use href="#circle" x="20.75" y="12"/>
      <use href="#plus" x="0" y="0" fill="#fff"/>
    </symbol>
    <symbol id ="review-add-hover">
      <use href="#review" x="0" y="0"/>
      <use href="#circle" x="20.75" y="12"/>
      <use href="#plus" x="0" y="0" fill="#f04"/>
    </symbol>

    <symbol id = "close">
      <use href="#circle" x="0" y="0"/>
      <use href="#x" x="2.5" y="2.5" fill="#fff"/>
    </symbol>

    <symbol id = "close-hover">
      <use href="#circle" x="0" y="0"/>
      <use href="#x" x="2.5" y="2.5" fill="#f04"/>
    </symbol>
  </defs>
</svg>
